<svg width="266" height="67" viewBox="0 0 266 67" fill="none" xmlns="http://www.w3.org/2000/svg">
<path fill-rule="evenodd" clip-rule="evenodd" d="M33.4914 0C40.8987 0 47.7363 2.4058 53.276 6.48935L43.4311 11.8708C40.4239 10.4779 37.0368 9.68654 33.4914 9.68654C20.386 9.68654 9.74985 20.3227 9.74985 33.4281C9.74985 46.5334 20.386 57.1696 33.4914 57.1696C46.5967 57.1696 57.2329 46.5334 57.2329 33.4281C57.2329 29.8827 56.4415 26.5272 55.0487 23.4883L60.4301 13.6435C64.5136 19.1831 66.9194 26.0207 66.9194 33.4281C66.9194 51.9148 51.9464 66.8878 33.4597 66.8878C14.973 66.8878 0 51.9148 0 33.4281C0 14.9413 15.0046 0 33.4914 0Z" fill="white"/>
<path fill-rule="evenodd" clip-rule="evenodd" d="M41.342 17.0622L59.354 6.71094L49.4775 25.6092L48.8127 17.7587L41.342 17.0622Z" fill="white"/>
<path fill-rule="evenodd" clip-rule="evenodd" d="M96.1057 59.9552H96.7704V55.0803L98.9546 58.3092H98.9863L101.171 55.0803V59.9552H101.835V53.9407H101.171L98.9863 57.2329L96.8021 53.9407H96.1057V59.9552ZM106.489 59.9552H107.185L107.913 58.3725H111.174L111.87 59.9552H112.598L109.844 53.9091H109.211L106.489 59.9552ZM108.166 57.7394L109.528 54.6688L110.889 57.7394H108.166ZM117.22 59.9552H117.885V57.6127H119.594L121.335 59.9552H122.158L120.322 57.4861C121.272 57.3278 121.968 56.7264 121.968 55.7451V55.7134C121.968 55.2386 121.81 54.8271 121.493 54.5422C121.113 54.1623 120.512 53.9407 119.784 53.9407H117.188V59.9552H117.22ZM117.916 57.0113V54.5738H119.784C120.765 54.5738 121.335 55.017 121.335 55.7451V55.7767C121.335 56.5365 120.702 57.0113 119.784 57.0113H117.916ZM126.875 59.9552H127.539V58.3408L128.806 57.0429L131.116 59.9552H131.971L129.28 56.5681L131.845 53.9407H130.958L127.508 57.5178V53.9407H126.843V59.9552H126.875ZM136.498 59.9552H140.898V59.3221H137.194V57.2329H140.486V56.5998H137.194V54.5422H140.866V53.9091H136.53V59.9552H136.498ZM147.261 59.9552H147.957V54.5738H149.983V53.9407H145.266V54.5738H147.292V59.9552H147.261ZM154.763 59.9552H155.428V53.9407H154.763V59.9552ZM160.619 59.9552H161.284V55.017L165.178 59.9552H165.716V53.9407H165.051V58.7523L161.252 53.9407H160.619V59.9552ZM173.63 60.0502C174.643 60.0502 175.497 59.6387 176.035 59.1322V56.7264H173.566V57.3278H175.402V58.8156C174.991 59.1638 174.358 59.4171 173.661 59.4171C172.205 59.4171 171.287 58.3408 171.287 56.9163V56.8847C171.287 55.5551 172.237 54.4155 173.566 54.4155C174.421 54.4155 174.928 54.7004 175.402 55.112L175.846 54.6055C175.244 54.099 174.611 53.8141 173.598 53.8141C171.794 53.8141 170.591 55.2702 170.591 56.9163V56.948C170.591 58.689 171.762 60.0502 173.63 60.0502ZM187.938 60.0819L188.444 59.702L187.4 58.6257C187.716 58.1825 188.001 57.676 188.254 57.1063L187.685 56.853C187.463 57.3595 187.241 57.8027 186.957 58.1825L185.595 56.7897C186.482 56.4731 187.02 55.9983 187.02 55.2386V55.2069C187.02 54.4472 186.387 53.8457 185.564 53.8457C184.614 53.8457 183.981 54.4789 183.981 55.2702V55.3019C183.981 55.7767 184.171 56.1566 184.582 56.6314C183.664 56.9796 183.126 57.5811 183.126 58.3725V58.4041C183.126 59.4171 183.949 60.0819 185.026 60.0819C185.817 60.0819 186.45 59.7336 186.988 59.1322L187.938 60.0819ZM185.247 56.4098C184.804 55.935 184.646 55.6501 184.646 55.3019V55.2702C184.646 54.7954 185.026 54.4155 185.564 54.4155C186.039 54.4155 186.418 54.7637 186.418 55.2386V55.2702C186.418 55.7767 186.007 56.1249 185.247 56.4098ZM185.089 59.4804C184.361 59.4804 183.823 59.0056 183.823 58.3408V58.3092C183.823 57.8027 184.171 57.3278 184.962 57.0113L186.577 58.6574C186.134 59.1638 185.659 59.4804 185.089 59.4804ZM197.656 60.0502C198.859 60.0502 199.714 59.3854 199.714 58.3408V58.3092C199.714 57.3911 199.081 56.8847 197.751 56.5998C196.421 56.3149 196.105 55.9983 196.105 55.4285V55.3969C196.105 54.8587 196.611 54.4155 197.371 54.4155C198.004 54.4155 198.542 54.6055 199.112 55.0803L199.492 54.5422C198.891 54.0673 198.258 53.8141 197.371 53.8141C196.232 53.8141 195.409 54.5105 195.409 55.4602V55.4918C195.409 56.4731 196.042 56.9163 197.434 57.2329C198.701 57.4861 198.986 57.8027 198.986 58.3725V58.4041C198.986 59.0056 198.447 59.4171 197.656 59.4171C196.833 59.4171 196.232 59.1322 195.598 58.5624L195.187 59.0689C195.915 59.7336 196.706 60.0502 197.656 60.0502ZM204.525 59.9552H205.19V57.8343H206.646C207.912 57.8343 209.02 57.1696 209.02 55.8717V55.84C209.02 54.6688 208.134 53.9407 206.773 53.9407H204.525V59.9552ZM205.222 57.2329V54.5738H206.741C207.722 54.5738 208.356 55.017 208.356 55.8717V55.9033C208.356 56.6947 207.691 57.2329 206.709 57.2329H205.222ZM216.491 60.0502C218.327 60.0502 219.562 58.5941 219.562 56.948V56.9163C219.562 55.2702 218.327 53.8141 216.491 53.8141C214.655 53.8141 213.42 55.2702 213.42 56.9163V56.948C213.452 58.6257 214.687 60.0502 216.491 60.0502ZM216.523 59.4487C215.161 59.4487 214.149 58.3408 214.149 56.9796V56.948C214.149 55.5868 215.13 54.4789 216.491 54.4789C217.852 54.4789 218.865 55.5868 218.865 56.948V56.9796C218.865 58.3408 217.884 59.4487 216.523 59.4487ZM224.468 59.9552H225.133V57.6127H226.842L228.583 59.9552H229.406L227.57 57.4861C228.52 57.3278 229.216 56.7264 229.216 55.7451V55.7134C229.216 55.2386 229.058 54.8271 228.742 54.5422C228.362 54.1623 227.76 53.9407 227.032 53.9407H224.436V59.9552H224.468ZM225.133 57.0113V54.5738H227.001C227.982 54.5738 228.552 55.017 228.552 55.7451V55.7767C228.552 56.5365 227.919 57.0113 227.001 57.0113H225.133ZM235.643 59.9552H236.339V54.5738H238.365V53.9407H233.648V54.5738H235.674V59.9552H235.643ZM244.981 60.0502C246.184 60.0502 247.038 59.3854 247.038 58.3408V58.3092C247.038 57.3911 246.405 56.8847 245.076 56.5998C243.746 56.3149 243.43 55.9983 243.43 55.4285V55.3969C243.43 54.8587 243.936 54.4155 244.696 54.4155C245.329 54.4155 245.867 54.6055 246.437 55.0803L246.817 54.5422C246.215 54.0673 245.582 53.8141 244.696 53.8141C243.556 53.8141 242.733 54.5105 242.733 55.4602V55.4918C242.733 56.4731 243.366 56.9163 244.759 57.2329C246.025 57.4861 246.31 57.8027 246.31 58.3725V58.4041C246.31 59.0056 245.772 59.4171 244.981 59.4171C244.158 59.4171 243.556 59.1322 242.923 58.5624L242.512 59.0689C243.24 59.7336 244.031 60.0502 244.981 60.0502Z" fill="white"/>
<path fill-rule="evenodd" clip-rule="evenodd" d="M77.144 39.221C79.075 41.5951 82.5571 43.7793 88.2867 43.7793C96.074 43.7793 99.5244 40.0757 99.5244 35.1691C99.5244 31.9402 97.8467 29.5028 93.2566 27.92C88.35 26.2106 86.2608 26.4955 86.2608 24.7861C86.2608 23.9314 87.0838 23.1717 88.7932 23.1717C91.4839 23.1717 93.1617 24.1214 94.143 25.0394L97.7517 20.0695C95.979 18.3601 93.2566 16.7773 88.9832 16.7773C83.8233 16.7773 79.075 19.4997 79.075 24.9761C79.075 28.838 81.4175 30.8323 84.9313 32.0669C88.8249 33.3964 92.307 33.523 92.307 35.264C92.307 36.4669 91.1357 37.3533 88.445 37.3533C85.4694 37.3533 82.842 36.182 81.4492 34.5676L77.144 39.221ZM103.101 36.3087C103.101 41.6268 105.729 43.5261 109.781 43.5261C111.87 43.5261 113.01 43.2095 113.263 43.1146V36.6885C113.168 36.7518 112.661 36.7835 112.345 36.7835C111.015 36.7835 110.635 35.9288 110.635 34.0928V17.537H103.101V36.3087ZM106.868 15.3845C109.243 15.3845 111.174 13.5168 111.174 11.1427C111.174 8.70519 109.243 6.83752 106.868 6.83752C104.526 6.83752 102.563 8.70519 102.563 11.1427C102.563 13.5168 104.526 15.3845 106.868 15.3845ZM115.257 30.3258C115.257 37.7648 120.67 43.5894 127.919 43.5894C132.383 43.5894 134.915 42.0699 136.371 39.8857C136.814 41.3102 137.827 42.1016 138.65 42.6081C139.917 43.3045 141.436 43.5261 142.797 43.5261C144 43.5261 145.425 43.3678 146.184 43.1146V36.8468C145.836 36.9101 145.266 36.9418 144.918 36.9418C143.589 36.9418 143.051 36.182 143.051 34.0928V7.78719H135.517V20.8925C134.82 18.6766 131.813 17.0939 127.919 17.0939C120.67 17.1255 115.257 22.9818 115.257 30.3258ZM122.791 30.3258C122.791 26.7171 125.64 23.9631 129.28 23.9631C132.984 23.9631 135.96 26.7488 135.96 30.3258C135.96 33.9345 132.984 36.6885 129.28 36.6885C125.64 36.6885 122.791 33.9029 122.791 30.3258ZM148.052 30.4841C148.052 38.4929 153.718 43.6844 162.012 43.6844C165.906 43.6844 169.609 42.5131 172.996 39.031L168.596 34.8209C166.824 36.4986 164.988 37.29 162.36 37.29C158.372 37.29 155.744 35.3273 155.586 32.2884H174.864C174.959 31.1172 174.959 29.851 174.959 29.851C174.959 22.6652 169.736 16.9039 161.854 16.9039C153.908 16.9039 148.052 22.1271 148.052 30.2625V30.4841ZM155.713 27.3819C155.903 25.0077 158.593 23.14 161.885 23.14C164.924 23.14 167.393 25.071 167.393 27.3819H155.713Z" fill="white"/>
<path fill-rule="evenodd" clip-rule="evenodd" d="M189.457 30.3259C189.457 37.8598 195.725 43.8427 203.639 43.8427C211.489 43.8427 217.82 37.8598 217.82 30.3259C217.82 22.7919 211.489 16.809 203.639 16.809C195.725 16.809 189.457 22.7919 189.457 30.3259ZM196.991 30.3259C196.991 26.6222 199.872 23.6466 203.607 23.6466C207.311 23.6466 210.223 26.6222 210.223 30.3259C210.223 34.0612 207.279 37.0051 203.607 37.0051C199.903 37.0051 196.991 34.0612 196.991 30.3259ZM221.492 33.0166C221.492 39.6325 225.101 43.6211 231.527 43.6211C235.484 43.6211 237.89 42.0383 239.03 39.8858C239.473 41.3103 240.486 42.1016 241.309 42.6081C242.575 43.3045 244.094 43.5261 245.456 43.5261C246.658 43.5261 248.083 43.3679 248.843 43.1146V36.8469C248.494 36.9102 247.925 36.9418 247.576 36.9418C246.247 36.9418 245.709 36.1821 245.709 34.0928V17.5371H238.175V31.877C238.175 34.8526 236.212 36.9418 233.458 36.9418C230.578 36.9418 229.058 35.0742 229.058 32.1302V17.5687H221.524V33.0166H221.492ZM252.99 34.631C252.99 42.6398 258.054 43.7477 261.79 43.7477C263.214 43.7477 264.639 43.5894 265.493 43.3995V36.7202C264.829 36.8152 264.132 36.9102 263.562 36.9102C261.347 36.9102 260.334 35.9922 260.334 33.523V24.4063H266V17.5687H260.334V7.78723H252.99V17.5687H249.634V24.4063H252.99V34.631Z" fill="white"/>
</svg>
