<svg width="16" height="17" viewBox="0 0 16 17" fill="none" xmlns="http://www.w3.org/2000/svg">
<g clip-path="url(#clip0)">
<path d="M5.00002 3.5C5.00002 2.70435 5.31609 1.94129 5.8787 1.37868C6.44131 0.81607 7.20437 0.5 8.00002 0.5C8.79567 0.5 9.55874 0.81607 10.1213 1.37868C10.684 1.94129 11 2.70435 11 3.5C11 4.29565 10.684 5.05871 10.1213 5.62132C9.55874 6.18393 8.79567 6.5 8.00002 6.5C7.20437 6.5 6.44131 6.18393 5.8787 5.62132C5.31609 5.05871 5.00002 4.29565 5.00002 3.5ZM12.001 7.5H11.448L8.33702 13.816L9.50002 8L8.00002 6.5L6.50002 8L7.66302 13.816L4.55202 7.5H3.99802C1.99902 7.5 1.99902 8.844 1.99902 10.5V15.5H13.999V10.5C13.999 8.844 13.999 7.5 12 7.5H12.001Z" fill="#A46B62"/>
</g>
<defs>
<clipPath id="clip0">
<rect width="16" height="16" fill="white" transform="translate(0 0.5)"/>
</clipPath>
</defs>
</svg>
