<svg width="14" height="12" viewBox="0 0 14 12" fill="none" xmlns="http://www.w3.org/2000/svg">
<path d="M8.707 11.7071L13.707 6.70709C13.7999 6.61431 13.8737 6.5041 13.924 6.38279C13.9743 6.26147 14.0002 6.13143 14.0002 6.00009C14.0002 5.86876 13.9743 5.73872 13.924 5.6174C13.8737 5.49609 13.7999 5.38588 13.707 5.29309L8.707 0.293093C8.61415 0.200249 8.50393 0.1266 8.38263 0.0763533C8.26132 0.0261062 8.1313 0.000244141 8 0.000244141C7.8687 0.000244141 7.73868 0.0261062 7.61737 0.0763533C7.49607 0.1266 7.38584 0.200249 7.293 0.293093C7.10549 0.480601 7.00015 0.734917 7.00015 1.00009C7.00015 1.26527 7.10549 1.51959 7.293 1.70709L10.586 5.00009H1C0.734784 5.00009 0.48043 5.10545 0.292893 5.29299C0.105357 5.48052 0 5.73488 0 6.00009C0 6.26531 0.105357 6.51966 0.292893 6.7072C0.48043 6.89474 0.734784 7.00009 1 7.00009H10.586L7.293 10.2931C7.19982 10.3857 7.12587 10.4959 7.0754 10.6172C7.02494 10.7386 6.99897 10.8687 6.99897 11.0001C6.99897 11.1315 7.02494 11.2616 7.0754 11.3829C7.12587 11.5043 7.19982 11.6144 7.293 11.7071C7.38579 11.8 7.49599 11.8738 7.61731 11.9241C7.73862 11.9744 7.86867 12.0003 8 12.0003C8.13133 12.0003 8.26138 11.9744 8.38269 11.9241C8.50401 11.8738 8.61421 11.8 8.707 11.7071Z" fill="white"/>
</svg>
