<svg width="14" height="12" fill="none" version="1.1" viewBox="0 0 14 12" xmlns="http://www.w3.org/2000/svg"><path d="m5.2932.29344-5 5c-.0929.09278-.1667.20299-.217.3243-.0503.12132-.0762.25136-.0762.3827 0 .13133.0259.26137.0762.38269.0503.12131.1241.23152.217.32431l5 5c.09285.09284.20307.16649.32437.21674.12131.05025.25133.07611.38263.07611s.26132-.02586.38263-.07611c.1213-.05025.23153-.1239.32437-.21674.18751-.18751.29285-.44182.29285-.707 0-.26518-.10534-.5195-.29285-.707l-3.293-3.293h9.586c.26522 0 .51957-.10536.70711-.2929.18754-.18753.29289-.44189.29289-.7071 0-.26522-.10536-.51957-.29289-.70711-.18754-.18754-.44189-.29289-.70711-.29289h-9.586l3.293-3.293c.09318-.0926.16713-.2028.2176-.3241.05046-.1214.07643-.2515.07643-.3829 0-.1314-.02597-.2615-.07643-.3828-.05047-.1214-.12442-.2315-.2176-.3242-.09279-.0929-.20299-.1667-.32431-.217-.12131-.0503-.25136-.0762-.38269-.0762s-.26138.0259-.38269.0762c-.12132.0503-.23152.1241-.32431.217z" fill="white" style="fill:#ffffff"/></svg>
