<svg width="50" height="50" viewBox="0 0 50 50" fill="none" xmlns="http://www.w3.org/2000/svg">
<path d="M11.7628 19.2334H38.2374L25.0001 9.60449L11.7628 19.2334Z" fill="#537DB1"/>
<path d="M43.6525 22.5586C45.1612 22.5586 45.7911 20.6201 44.5655 19.7266L25.9181 6.16211C25.6518 5.967 25.3302 5.86182 25.0001 5.86182C24.67 5.86182 24.3484 5.967 24.0821 6.16211L5.43467 19.7266C4.20908 20.6152 4.83897 22.5586 6.35264 22.5586H9.3751V40.8203H5.85947C5.64463 40.8203 5.46885 40.9961 5.46885 41.2109V43.75C5.46885 43.9648 5.64463 44.1406 5.85947 44.1406H44.1407C44.3556 44.1406 44.5314 43.9648 44.5314 43.75V41.2109C44.5314 40.9961 44.3556 40.8203 44.1407 40.8203H40.6251V22.5586H43.6525ZM18.6036 40.8203H12.8907V22.5586H18.6036V40.8203ZM27.8321 40.8203H22.1192V22.5586H27.8321V40.8203ZM37.1095 40.8203H31.3478V22.5586H37.1095V40.8203ZM11.7628 19.2334L25.0001 9.60449L38.2374 19.2334H11.7628Z" fill="#537DB1"/>
</svg>
