<svg width="51" height="51" viewBox="0 0 51 51" fill="none" xmlns="http://www.w3.org/2000/svg">
<path d="M24.8964 23.0213C20.1672 21.7922 18.6464 20.5213 18.6464 18.5422C18.6464 16.2713 20.7506 14.688 24.2714 14.688C27.9797 14.688 29.3547 16.4588 29.4797 19.063H34.0839C33.9381 15.4797 31.7506 12.188 27.3964 11.1255V6.56299H21.1464V11.063C17.1047 11.938 13.8547 14.563 13.8547 18.5838C13.8547 23.3963 17.8339 25.7922 23.6464 27.188C28.8547 28.438 29.8964 30.2713 29.8964 32.2088C29.8964 33.6463 28.8756 35.938 24.2714 35.938C19.9797 35.938 18.2922 34.0213 18.0631 31.563H13.4797C13.7297 36.1255 17.1464 38.688 21.1464 39.5421V44.063H27.3964V39.5838C31.4589 38.813 34.6881 36.4588 34.6881 32.188C34.6881 26.2713 29.6256 24.2505 24.8964 23.0213Z" fill="#C4774D"/>
</svg>
