<svg width="50" height="50" viewBox="0 0 50 50" fill="none" xmlns="http://www.w3.org/2000/svg">
<path d="M39.5832 4.16675H18.7499C16.452 4.16675 14.5832 6.0355 14.5832 8.33342V20.8334H10.4165C8.11863 20.8334 6.24988 22.7022 6.24988 25.0001V43.7501C6.24988 44.3026 6.46937 44.8325 6.86007 45.2232C7.25077 45.6139 7.78068 45.8334 8.33321 45.8334H41.6665C42.2191 45.8334 42.749 45.6139 43.1397 45.2232C43.5304 44.8325 43.7499 44.3026 43.7499 43.7501V8.33342C43.7499 6.0355 41.8811 4.16675 39.5832 4.16675ZM10.4165 25.0001H22.9165V41.6668H10.4165V25.0001ZM39.5832 41.6668H27.0832V25.0001C27.0832 22.7022 25.2145 20.8334 22.9165 20.8334H18.7499V8.33342H39.5832V41.6668Z" fill="#2298AA"/>
<path d="M22.917 12.5H27.0836V16.6667H22.917V12.5ZM31.2503 12.5H35.417V16.6667H31.2503V12.5ZM31.2503 20.8979H35.417V25H31.2503V20.8979ZM31.2503 29.1667H35.417V33.3333H31.2503V29.1667ZM14.5836 29.1688H18.7503V33.3354H14.5836V29.1688Z" fill="#2298AA"/>
</svg>
