<svg width="16" height="16" viewBox="0 0 16 16" fill="none" xmlns="http://www.w3.org/2000/svg">
<path d="M14.5 0H1.5C0.675 0 0 0.675 0 1.5V14.5C0 15.325 0.675 16 1.5 16H14.5C15.325 16 16 15.325 16 14.5V1.5C16 0.675 15.325 0 14.5 0ZM11 2.5C11 2.225 11.225 2 11.5 2H13.5C13.775 2 14 2.225 14 2.5V4.5C14 4.775 13.775 5 13.5 5H11.5C11.3675 4.99974 11.2404 4.94697 11.1467 4.85326C11.053 4.75955 11.0003 4.63253 11 4.5V2.5ZM8 5C8.78224 5.0202 9.52565 5.34513 10.0718 5.90554C10.6179 6.46595 10.9235 7.2175 10.9235 8C10.9235 8.7825 10.6179 9.53405 10.0718 10.0945C9.52565 10.6549 8.78224 10.9798 8 11C7.21776 10.9798 6.47435 10.6549 5.92822 10.0945C5.3821 9.53405 5.07647 8.7825 5.07647 8C5.07647 7.2175 5.3821 6.46595 5.92822 5.90554C6.47435 5.34513 7.21776 5.0202 8 5ZM14 13.5C14 13.775 13.775 14 13.5 14H2.5C2.36747 13.9997 2.24045 13.947 2.14674 13.8533C2.05303 13.7596 2.00026 13.6325 2 13.5V7H3.1C2.95151 7.72656 2.96652 8.47705 3.14395 9.19709C3.32139 9.91712 3.6568 10.5887 4.12587 11.163C4.59494 11.7374 5.18593 12.2002 5.85599 12.518C6.52606 12.8357 7.25842 13.0003 8 13C8.74158 13.0003 9.47394 12.8357 10.144 12.518C10.8141 12.2002 11.4051 11.7374 11.8741 11.163C12.3432 10.5887 12.6786 9.91712 12.856 9.19709C13.0335 8.47705 13.0485 7.72656 12.9 7H14V13.5Z" fill="#A46B62"/>
</svg>
