<svg width="16" height="16" viewBox="0 0 16 16" fill="none" xmlns="http://www.w3.org/2000/svg">
<path d="M14.5 0H1.5C0.675 0 0 0.675 0 1.5V14.5C0 15.325 0.675 16 1.5 16H14.5C15.325 16 16 15.325 16 14.5V1.5C16 0.675 15.325 0 14.5 0ZM6 13H4V6H6V13ZM5 5C4.73478 5 4.48043 4.89464 4.29289 4.70711C4.10536 4.51957 4 4.26522 4 4C4 3.73478 4.10536 3.48043 4.29289 3.29289C4.48043 3.10536 4.73478 3 5 3C5.26522 3 5.51957 3.10536 5.70711 3.29289C5.89464 3.48043 6 3.73478 6 4C6 4.26522 5.89464 4.51957 5.70711 4.70711C5.51957 4.89464 5.26522 5 5 5ZM13 13H11V9C11 8.73478 10.8946 8.48043 10.7071 8.29289C10.5196 8.10536 10.2652 8 10 8C9.73478 8 9.48043 8.10536 9.29289 8.29289C9.10536 8.48043 9 8.73478 9 9V13H7V6H9V7.241C9.412 6.675 10.044 6 10.75 6C11.994 6 13 7.119 13 8.5V13Z" fill="#A46B62"/>
</svg>
