<svg width="14" height="14" viewBox="0 0 14 14" fill="none" xmlns="http://www.w3.org/2000/svg">
<path d="M12.6875 0H1.3125C0.590625 0 0 0.590625 0 1.3125V12.6875C0 13.4094 0.590625 14 1.3125 14H12.6875C13.4094 14 14 13.4094 14 12.6875V1.3125C14 0.590625 13.4094 0 12.6875 0ZM9.625 2.1875C9.625 1.94687 9.82187 1.75 10.0625 1.75H11.8125C12.0531 1.75 12.25 1.94687 12.25 2.1875V3.9375C12.25 4.17812 12.0531 4.375 11.8125 4.375H10.0625C9.94654 4.37477 9.83539 4.3286 9.7534 4.2466C9.6714 4.16461 9.62523 4.05346 9.625 3.9375V2.1875ZM7 4.375C7.68446 4.39267 8.33495 4.67699 8.8128 5.16735C9.29066 5.6577 9.55809 6.31531 9.55809 7C9.55809 7.68469 9.29066 8.3423 8.8128 8.83265C8.33495 9.32301 7.68446 9.60733 7 9.625C6.31554 9.60733 5.66505 9.32301 5.1872 8.83265C4.70934 8.3423 4.44191 7.68469 4.44191 7C4.44191 6.31531 4.70934 5.6577 5.1872 5.16735C5.66505 4.67699 6.31554 4.39267 7 4.375ZM12.25 11.8125C12.25 12.0531 12.0531 12.25 11.8125 12.25H2.1875C2.07154 12.2498 1.96039 12.2036 1.8784 12.1216C1.7964 12.0396 1.75023 11.9285 1.75 11.8125V6.125H2.7125C2.58257 6.76074 2.59571 7.41742 2.75096 8.04745C2.90621 8.67748 3.1997 9.26508 3.61013 9.76766C4.02057 10.2702 4.53769 10.6752 5.124 10.9532C5.7103 11.2312 6.35112 11.3753 7 11.375C7.64888 11.3753 8.2897 11.2312 8.876 10.9532C9.46231 10.6752 9.97943 10.2702 10.3899 9.76766C10.8003 9.26508 11.0938 8.67748 11.249 8.04745C11.4043 7.41742 11.4174 6.76074 11.2875 6.125H12.25V11.8125Z" fill="#A39799"/>
</svg>
