<svg width="16" height="16" viewBox="0 0 16 16" fill="none" xmlns="http://www.w3.org/2000/svg">
<path d="M6 6H8.767V7.418H8.807C9.192 6.727 10.134 6 11.539 6C14.46 6 15 7.818 15 10.183V15H12.115V10.73C12.115 9.712 12.094 8.401 10.615 8.401C9.113 8.401 8.883 9.51 8.883 10.656V15H6V6Z" fill="#A39799"/>
<path d="M1 6H4V15H1V6Z" fill="#A39799"/>
<path d="M4.00002 3.50002C3.99989 3.89798 3.84168 4.27959 3.56018 4.56089C3.27869 4.8422 2.89698 5.00016 2.49902 5.00002C2.10107 4.99989 1.71946 4.84168 1.43816 4.56018C1.15685 4.27869 0.998891 3.89698 0.999024 3.49902C0.999156 3.10107 1.15737 2.71946 1.43886 2.43816C1.57824 2.29887 1.74369 2.1884 1.92577 2.11305C2.10784 2.0377 2.30298 1.99896 2.50002 1.99902C2.69707 1.99909 2.89218 2.03797 3.0742 2.11343C3.25623 2.1889 3.4216 2.29948 3.56089 2.43886C3.70018 2.57824 3.81065 2.74369 3.886 2.92577C3.96134 3.10784 4.00009 3.30298 4.00002 3.50002Z" fill="#A39799"/>
</svg>
