<svg width="122" height="155" viewBox="0 0 122 155" fill="none" xmlns="http://www.w3.org/2000/svg">
<g clip-path="url(#clip0)">
<path d="M0.065918 116.584L1.31821 115.794C2.57051 117.903 3.92167 119.023 6.32739 119.023C8.83198 119.023 10.7434 117.112 10.7434 113.586V99.7444H12.2593V113.454C12.2593 115.826 11.5343 117.606 10.4138 118.759C9.3263 119.847 7.87628 120.374 6.26148 120.374C3.19665 120.407 1.31821 118.825 0.065918 116.584Z" fill="#8E8A6F"/>
<path d="M18.356 111.641V99.7444H19.8719V111.509C19.8719 116.321 22.4424 119.056 26.7595 119.056C30.8789 119.056 33.5483 116.551 33.5483 111.641V99.7444H35.0642V111.476C35.0642 117.309 31.6698 120.44 26.7266 120.44C21.8162 120.44 18.356 117.342 18.356 111.641Z" fill="#8E8A6F"/>
<path d="M48.5099 99.6128H49.9599L59.451 120.111H57.8032L55.1998 114.41H43.1711L40.5677 120.111H38.9858L48.5099 99.6128ZM54.5406 113.026L49.2019 101.228L43.8302 113.026H54.5406Z" fill="#8E8A6F"/>
<path d="M64.4272 99.7444H72.9626C75.4672 99.7444 77.4775 100.535 78.6968 101.755C79.6525 102.71 80.2457 104.094 80.2457 105.544V105.61C80.2457 109.005 77.7082 110.949 74.2808 111.443L81.0037 120.144H79.0923L72.6001 111.707H65.9432V120.144H64.4272V99.7444ZM72.8308 110.29C76.2252 110.29 78.7627 108.576 78.7627 105.643V105.577C78.7627 102.842 76.6206 101.128 72.9297 101.128H65.9761V110.29H72.8308Z" fill="#8E8A6F"/>
<path d="M86.1775 99.7444H100.645V101.128H87.6605V109.137H99.3266V110.521H87.6605V118.694H100.777V120.078H86.1445V99.7444H86.1775Z" fill="#8E8A6F"/>
<path d="M105.292 119.254L119.232 101.096H105.786V99.7444H121.374V100.601L107.434 118.759H121.374V120.111H105.292V119.254Z" fill="#8E8A6F"/>
<path d="M0 132.963V132.93C0 129.536 2.53754 126.735 6.16261 126.735C8.3706 126.735 9.6888 127.493 10.8422 128.613L9.49107 130.162C8.53537 129.272 7.51376 128.679 6.12965 128.679C3.85575 128.679 2.17504 130.558 2.17504 132.897V132.93C2.17504 135.27 3.82279 137.182 6.12965 137.182C7.61263 137.182 8.53537 136.588 9.55698 135.633L10.9081 137.017C9.65585 138.335 8.30469 139.126 6.06374 139.126C2.60345 139.126 0 136.424 0 132.963Z" fill="#8E8A6F"/>
<path d="M17.0377 126.867H18.9821L24.2549 138.928H22.0469L20.8276 136.028H15.1593L13.9399 138.928H11.7979L17.0377 126.867ZM20.0696 134.183L17.9934 129.371L15.9502 134.15H20.0696V134.183Z" fill="#8E8A6F"/>
<path d="M24.98 137.182L26.2323 135.666C27.3857 136.654 28.5391 137.215 30.0221 137.215C31.3074 137.215 32.1312 136.588 32.1312 135.699V135.666C32.1312 134.809 31.6369 134.347 29.4289 133.82C26.8914 133.194 25.4413 132.436 25.4413 130.261V130.228C25.4413 128.185 27.155 126.768 29.5278 126.768C31.2744 126.768 32.6585 127.295 33.8779 128.284L32.7574 129.866C31.6699 129.075 30.6153 128.646 29.4948 128.646C28.2755 128.646 27.5505 129.272 27.5505 130.063V130.096C27.5505 131.019 28.1107 131.414 30.4176 131.975C32.9551 132.601 34.2404 133.491 34.2404 135.468V135.501C34.2404 137.742 32.4937 139.093 29.9562 139.093C28.1437 139.093 26.43 138.467 24.98 137.182Z" fill="#8E8A6F"/>
<path d="M40.37 126.867H42.3143L47.5872 138.928H45.3462L44.1269 136.028H38.4586L37.2393 138.928H35.0972L40.37 126.867ZM43.3689 134.183L41.2927 129.404L39.2495 134.183H43.3689Z" fill="#8E8A6F"/>
<path d="M48.0156 132.963V132.93C48.0156 129.569 50.5861 126.735 54.1782 126.735C56.2544 126.735 57.5397 127.328 58.7919 128.35L57.4737 129.932C56.551 129.141 55.6283 128.646 54.1123 128.646C51.9043 128.646 50.2236 130.591 50.2236 132.865V132.897C50.2236 135.369 51.8384 137.182 54.3101 137.182C55.4305 137.182 56.4521 136.819 57.2101 136.292V134.051H54.1453V132.205H59.2533V137.28C58.0669 138.302 56.3862 139.159 54.2441 139.159C50.4873 139.126 48.0156 136.457 48.0156 132.963Z" fill="#8E8A6F"/>
<path d="M61.626 126.966H66.9647C68.4806 126.966 69.6341 127.394 70.425 128.152C71.0511 128.811 71.4136 129.701 71.4136 130.755V130.788C71.4136 132.766 70.2273 133.919 68.5795 134.413L71.8091 138.961H69.3045L66.3715 134.776H63.7351V138.928H61.626V126.966ZM66.7999 132.897C68.3159 132.897 69.2716 132.107 69.2716 130.887V130.854C69.2716 129.569 68.3488 128.877 66.7999 128.877H63.7351V132.897H66.7999Z" fill="#8E8A6F"/>
<path d="M77.9059 126.867H79.8502L85.123 138.928H82.9151L81.6957 136.028H76.0274L74.8081 138.928H72.666L77.9059 126.867ZM80.9048 134.183L78.8286 129.404L76.7854 134.183H80.9048Z" fill="#8E8A6F"/>
<path d="M86.8369 126.966H88.7813L95.2075 135.237V126.966H97.2837V138.928H95.5371L88.946 130.393V138.928H86.8699V126.966H86.8369Z" fill="#8E8A6F"/>
<path d="M100.019 126.966H104.467C108.224 126.966 110.828 129.536 110.828 132.93V132.963C110.828 136.325 108.224 138.961 104.467 138.961H100.019V126.966ZM102.095 128.877V137.017H104.467C106.972 137.017 108.62 135.336 108.62 132.996V132.963C108.62 130.624 106.972 128.91 104.467 128.91H102.095V128.877Z" fill="#8E8A6F"/>
<path d="M113.036 126.966H121.934V128.844H115.178V131.942H121.176V133.82H115.178V137.05H122.032V138.928H113.036V126.966Z" fill="#8E8A6F"/>
<path d="M31.8346 148.353H32.4937L35.3608 154.681H34.6028L33.8778 153H30.4176L29.6596 154.681H28.9346L31.8346 148.353ZM33.5812 152.374L32.1642 149.177L30.7141 152.374H33.5812Z" fill="#662633"/>
<path d="M36.877 148.386H39.052C41.0293 148.386 42.4134 149.738 42.4134 151.517V151.55C42.4134 153.33 41.0623 154.714 39.052 154.714H36.877V148.386ZM37.569 149.046V154.022H39.052C40.6338 154.022 41.6554 152.934 41.6554 151.55C41.6554 150.166 40.6338 149.046 39.052 149.046H37.569Z" fill="#662633"/>
<path d="M43.2373 148.386H44.0282L46.2692 153.824L48.5101 148.386H49.2681L46.5658 154.714H45.9396L43.2373 148.386Z" fill="#662633"/>
<path d="M50.1577 151.55C50.1577 149.803 51.4759 148.287 53.3873 148.287C55.2987 148.287 56.584 149.803 56.584 151.517V151.55C56.584 153.297 55.2658 154.812 53.3544 154.812C51.443 154.812 50.1577 153.297 50.1577 151.55ZM55.826 151.55C55.826 150.1 54.7714 148.946 53.3544 148.946C51.9043 148.946 50.8827 150.1 50.8827 151.517V151.55C50.8827 152.967 51.9373 154.153 53.3544 154.153C54.8044 154.153 55.826 153 55.826 151.55Z" fill="#662633"/>
<path d="M58.0669 151.55C58.0669 149.803 59.3521 148.287 61.2306 148.287C62.2852 148.287 62.9442 148.584 63.5704 149.111L63.109 149.639C62.6147 149.21 62.0874 148.913 61.1976 148.913C59.8135 148.913 58.7919 150.1 58.7919 151.484V151.517C58.7919 153.033 59.7476 154.12 61.2965 154.12C62.0215 154.12 62.6806 153.857 63.109 153.494V151.945H61.1976V151.319H63.8011V153.824C63.2079 154.351 62.3511 154.78 61.2635 154.78C59.2862 154.812 58.0669 153.362 58.0669 151.55Z" fill="#662633"/>
<path d="M67.9862 148.353H68.6453L71.5124 154.681H70.7545L70.0294 153H66.6021L65.8442 154.681H65.1191L67.9862 148.353ZM69.7658 152.374L68.3487 149.177L66.8987 152.374H69.7658Z" fill="#662633"/>
<path d="M73.0615 148.386H75.2366C77.2139 148.386 78.598 149.738 78.598 151.517V151.55C78.598 153.33 77.2139 154.714 75.2366 154.714H73.0615V148.386ZM73.7536 149.046V154.022H75.2366C76.8184 154.022 77.84 152.934 77.84 151.55C77.84 150.166 76.8184 149.046 75.2366 149.046H73.7536Z" fill="#662633"/>
<path d="M80.0811 151.55C80.0811 149.803 81.3993 148.287 83.3107 148.287C85.2221 148.287 86.5073 149.803 86.5073 151.517V151.55C86.5073 153.297 85.1891 154.812 83.2777 154.812C81.3663 154.812 80.0811 153.297 80.0811 151.55ZM85.7493 151.55C85.7493 150.1 84.6948 148.946 83.2777 148.946C81.8277 148.946 80.8061 150.1 80.8061 151.517V151.55C80.8061 152.967 81.8606 154.153 83.3107 154.153C84.7277 154.153 85.7493 153 85.7493 151.55Z" fill="#662633"/>
<path d="M87.8257 153.758L88.2541 153.231C88.9132 153.824 89.5393 154.12 90.3962 154.12C91.253 154.12 91.8133 153.659 91.8133 153.033V153C91.8133 152.407 91.4837 152.077 90.1655 151.814C88.7155 151.484 88.0564 151.023 88.0564 150.001V149.968C88.0564 148.979 88.9462 148.254 90.1325 148.254C91.0553 148.254 91.7144 148.518 92.3405 149.012L91.9121 149.573C91.3189 149.078 90.7257 148.881 90.0996 148.881C89.2757 148.881 88.7484 149.342 88.7484 149.902V149.935C88.7484 150.528 89.078 150.858 90.4621 151.154C91.8792 151.451 92.5053 151.978 92.5053 152.934C92.5053 154.022 91.6155 154.714 90.3632 154.714C89.4075 154.78 88.5837 154.45 87.8257 153.758Z" fill="#662633"/>
<path d="M24.1891 151.22H0V151.781H24.1891V151.22Z" fill="#662633"/>
<path d="M122 151.22H97.8105V151.781H122V151.22Z" fill="#662633"/>
<path d="M115.442 66.6577C114.288 69.36 110.762 75.9181 102.556 78.3897C93.263 81.158 80.806 77.5988 66.5693 68.1077C64.2295 66.5588 61.9227 65.1418 59.6488 63.8565C66.2728 47.0824 65.9432 24.8377 65.7125 8.78854C65.6796 5.69076 65.6136 2.75775 65.6466 0.286121L58.5942 0.187256C58.5613 2.7248 58.6272 5.72371 58.6601 8.85445C58.8908 23.2229 59.1874 45.0062 53.2884 60.6269C42.578 55.8814 32.6256 54.5961 23.5959 56.87C8.56835 60.6928 1.87846 72.9521 1.61482 73.4794L0.197754 76.1158L2.57052 77.9284C3.06485 78.2909 14.698 87.1558 27.1221 87.1558C36.7779 87.2546 44.786 84.058 50.9157 77.8624C53.1237 75.6215 55.0351 73.018 56.6499 70.2169C58.6272 71.3373 60.6374 72.5567 62.6806 73.9408C78.9605 84.816 93.0653 88.6058 104.632 85.1455C115.705 81.8171 120.484 73.018 122 69.393L115.442 66.6577ZM45.8735 72.9192C41.128 77.7636 35.0313 80.1034 27.2869 80.1034C27.2539 80.1034 27.188 80.1034 27.155 80.1034C20.3004 80.1034 13.3798 76.4783 9.65587 74.1715C12.1275 71.0078 17.2026 65.8009 25.3425 63.7577C32.7574 61.8792 41.128 62.9997 50.2895 67.0532C49.0043 69.2282 47.5542 71.2055 45.8735 72.9192Z" fill="#662633"/>
<path d="M84.4969 65.2077C77.9718 50.7733 78.0377 35.8776 78.1695 11.1613C78.2024 7.70102 78.2024 4.07596 78.2024 0.220215H71.1171C71.1171 4.04301 71.0841 7.66807 71.0841 11.1284C70.9523 36.8004 70.8864 52.3222 78.0377 68.1407L84.4969 65.2077Z" fill="#662633"/>
</g>
<defs>
<clipPath id="clip0">
<rect width="122" height="154.625" fill="white" transform="translate(0 0.187256)"/>
</clipPath>
</defs>
</svg>
